FILE "World Heroes (1999)(Pony Canyon)(JP)[CD-Audio].img" BINARY
  TRACK 01 AUDIO
    ISRC JPPC09300690
    INDEX 01 00:00:00
  TRACK 02 AUDIO
    ISRC JPPC09300700
    INDEX 00 03:53:37
    INDEX 01 03:58:12
  TRACK 03 AUDIO
    ISRC JPPC09300710
    INDEX 01 04:18:52
  TRACK 04 AUDIO
    ISRC JPPC09300720
    INDEX 01 04:50:40
  TRACK 05 AUDIO
    ISRC JPPC09300730
    INDEX 01 04:56:30
  TRACK 06 AUDIO
    ISRC JPPC09300740
    INDEX 00 06:45:35
    INDEX 01 06:46:70
  TRACK 07 AUDIO
    ISRC JPPC09300750
    INDEX 01 09:47:57
  TRACK 08 AUDIO
    ISRC JPPC09300760
    INDEX 00 12:24:42
    INDEX 01 12:25:52
  TRACK 09 AUDIO
    ISRC JPPC09300770
    INDEX 00 14:59:47
    INDEX 01 15:00:62
  TRACK 10 AUDIO
    ISRC JPPC09300780
    INDEX 00 17:51:27
    INDEX 01 17:52:50
  TRACK 11 AUDIO
    ISRC JPPC09300790
    INDEX 00 21:12:35
    INDEX 01 21:13:40
  TRACK 12 AUDIO
    ISRC JPPC09300800
    INDEX 01 24:16:42
  TRACK 13 AUDIO
    ISRC JPPC09300810
    INDEX 00 25:46:32
    INDEX 01 25:47:62
  TRACK 14 AUDIO
    ISRC JPPC09300820
    INDEX 01 29:03:40
  TRACK 15 AUDIO
    ISRC JPPC09300830
    INDEX 00 29:09:72
    INDEX 01 29:11:02
  TRACK 16 AUDIO
    ISRC JPPC09300840
    INDEX 00 29:51:45
    INDEX 01 29:52:72
  TRACK 17 AUDIO
    ISRC JPPC09300850
    INDEX 01 30:39:07
  TRACK 18 AUDIO
    ISRC JPPC09300860
    INDEX 01 31:33:45
  TRACK 19 AUDIO
    ISRC JPPC09300870
    INDEX 00 33:57:00
    INDEX 01 33:58:10
  TRACK 20 AUDIO
    ISRC JPPC09300880
    INDEX 01 34:52:42
  TRACK 21 AUDIO
    ISRC JPPC09300890
    INDEX 01 36:25:15
  TRACK 22 AUDIO
    ISRC JPPC09300900
    INDEX 01 37:26:72
  TRACK 23 AUDIO
    ISRC JPPC09300910
    INDEX 01 39:16:50
  TRACK 24 AUDIO
    ISRC JPPC09300920
    INDEX 01 40:29:32
  TRACK 25 AUDIO
    ISRC JPPC09300930
    INDEX 01 41:02:50
  TRACK 26 AUDIO
    ISRC JPPC09300940
    INDEX 01 41:38:27
  TRACK 27 AUDIO
    ISRC JPPC09300950
    INDEX 00 42:43:27
    INDEX 01 42:45:05
  TRACK 28 AUDIO
    ISRC JPPC09300960
    INDEX 00 44:34:70
    INDEX 01 44:36:62
  TRACK 29 AUDIO
    ISRC JPPC09300970
    INDEX 00 45:37:55
    INDEX 01 45:41:30
  TRACK 30 AUDIO
    ISRC JPPC09300980
    INDEX 00 49:03:15
    INDEX 01 49:05:65
